<?xml version="1.0" encoding="utf-8"?>
<!-- Generator: Adobe Illustrator 22.0.1, SVG Export Plug-In . SVG Version: 6.00 Build 0)  -->
<svg version="1.1" id="Ebene_1" xmlns="http://www.w3.org/2000/svg" xmlns:xlink="http://www.w3.org/1999/xlink" x="0px" y="0px"
	 viewBox="0 0 101.1 101.2" style="enable-background:new 0 0 101.1 101.2;" xml:space="preserve">
<style type="text/css">
	.st0{fill:#DFDFDF;}
	.st1{fill:#262626;}
</style>
<path class="st0" d="M1.6,17.9c0-9,7.3-16.3,16.3-16.3h65.3c9,0,16.3,7.3,16.3,16.3v65.4c0,9-7.3,16.3-16.3,16.3H17.9
	c-9,0-16.3-7.3-16.3-16.3C1.6,83.3,1.6,17.9,1.6,17.9z"/>
<g>
	<path class="st1" d="M50.5,23.9c-14.7,0-28.1,6-37.7,15.7l6.6,6.6c7.9-8,18.9-13,31.1-13s23.2,5,31.2,12.9l6.6-6.6
		C78.5,29.9,65.3,23.9,50.5,23.9L50.5,23.9z"/>
	<path class="st1" d="M22.7,49.4l6.6,6.6c5.2-5.6,12.9-8.9,21.2-8.9s15.9,3.4,21.3,8.8l6.5-6.5c-7.2-7.2-17.1-11.6-27.8-11.6
		S29.8,42.2,22.7,49.4L22.7,49.4z"/>
	<path class="st1" d="M32.6,59.3l6.6,6.6c2.9-2.9,7-4.8,11.5-4.8s8.6,1.9,11.5,4.8l6.6-6.6c-4.6-4.6-11-7.5-18-7.5
		S37.1,54.7,32.6,59.3L32.6,59.3z"/>
	<path class="st1" d="M42.3,69.1l8.2,8.2l8.2-8.2c-2.2-2.1-5-3.4-8.2-3.4C47.3,65.7,44.4,67,42.3,69.1L42.3,69.1z"/>
</g>
</svg>
