<?xml version="1.0" encoding="utf-8"?>
<!-- Generator: Adobe Illustrator 22.0.1, SVG Export Plug-In . SVG Version: 6.00 Build 0)  -->
<svg version="1.1" id="Ebene_1" xmlns="http://www.w3.org/2000/svg" xmlns:xlink="http://www.w3.org/1999/xlink" x="0px" y="0px"
	 viewBox="0 0 101.1 62.8" style="enable-background:new 0 0 101.1 62.8;" xml:space="preserve">
<style type="text/css">
	.st0{fill:#EACF56;}
	.st1{fill:#262626;}
</style>
<title>Inc</title>
<path class="st0" d="M1.6,11.5C1.6,6,6,1.6,11.5,1.6c0,0,0,0,0,0h78.1c5.5,0,9.9,4.4,9.9,9.9c0,0,0,0,0,0v39.8
	c0,5.5-4.4,9.9-9.9,9.9c0,0,0,0,0,0H11.5c-5.5,0-9.9-4.4-9.9-9.9c0,0,0,0,0,0V11.5z"/>
<path class="st1" d="M30.3,39.1c0,0.2,0,0.4,0,0.5c0,0.1-0.1,0.3-0.1,0.4c-0.1,0.1-0.1,0.2-0.2,0.2c-0.1,0-0.2,0.1-0.3,0.1h-5.4v6
	c0,0.1,0,0.2-0.1,0.2c-0.1,0.1-0.1,0.1-0.2,0.2c-0.1,0-0.2,0.1-0.4,0.1c-0.2,0-0.4,0-0.6,0c-0.2,0-0.4,0-0.6,0
	c-0.1,0-0.3-0.1-0.4-0.1c-0.1,0-0.2-0.1-0.2-0.2c0-0.1-0.1-0.1-0.1-0.2v-6h-5.4c-0.1,0-0.2,0-0.3-0.1C16.1,40.1,16,40.1,16,40
	c-0.1-0.1-0.1-0.2-0.1-0.4c0-0.2,0-0.4,0-0.5c0-0.2,0-0.3,0-0.5c0-0.1,0.1-0.3,0.1-0.4c0-0.1,0.1-0.2,0.2-0.2c0.1,0,0.2-0.1,0.2-0.1
	h5.4v-6c0-0.1,0-0.2,0.1-0.2c0.1-0.1,0.1-0.1,0.2-0.2c0.1-0.1,0.2-0.1,0.4-0.1c0.2,0,0.4,0,0.6,0c0.2,0,0.4,0,0.6,0
	c0.1,0,0.3,0.1,0.4,0.1c0.1,0,0.2,0.1,0.2,0.2c0,0.1,0.1,0.2,0.1,0.2v6h5.4c0.1,0,0.2,0,0.2,0.1c0.1,0.1,0.1,0.1,0.2,0.2
	c0.1,0.1,0.1,0.2,0.1,0.4C30.3,38.7,30.3,38.9,30.3,39.1z"/>
<path class="st1" d="M33.9,52.5c0,0.1-0.1,0.2-0.2,0.3c-0.1,0.1-0.2,0.1-0.3,0.2c-0.1,0-0.3,0.1-0.4,0.1c-0.2,0-0.4,0-0.6,0
	c-0.2,0-0.5,0-0.7-0.1c-0.2,0-0.3-0.1-0.4-0.2c-0.1-0.1-0.2-0.2-0.2-0.3c0-0.1,0-0.3,0.1-0.4l10-27.3c0-0.1,0.1-0.2,0.2-0.3
	c0.1-0.1,0.2-0.2,0.3-0.2c0.1-0.1,0.3-0.1,0.4-0.1c0.2,0,0.4,0,0.6,0c0.2,0,0.5,0,0.7,0c0.1,0,0.3,0.1,0.4,0.2
	c0.1,0.1,0.2,0.2,0.2,0.3c0,0.1,0,0.3,0,0.4L33.9,52.5z"/>
<path class="st1" d="M53.6,40.2c0,0.3,0,0.6-0.1,0.9c-0.1,0.2-0.3,0.2-0.4,0.2h-6.9c-0.2,0-0.4-0.1-0.5-0.3
	c-0.1-0.3-0.2-0.6-0.2-0.9c0-0.3,0-0.6,0.2-0.9c0.1-0.2,0.3-0.2,0.5-0.2H53c0.1,0,0.2,0,0.2,0c0.1,0,0.1,0.1,0.2,0.2
	c0.1,0.1,0.1,0.2,0.1,0.4C53.6,39.8,53.6,40,53.6,40.2z"/>
<path class="st1" d="M85.3,47c0.2,0.3,0.3,0.6,0.4,0.9c0.1,0.2,0,0.4-0.2,0.5c-0.2,0.1-0.5,0.2-0.7,0.2c-0.4,0-0.9,0.1-1.3,0.1
	c-0.5,0-0.9,0-1.2,0c-0.2,0-0.5-0.1-0.7-0.1c-0.1,0-0.3-0.1-0.4-0.2c-0.1-0.1-0.2-0.2-0.2-0.4l-7.1-12.7l-7.1,12.6
	c-0.1,0.1-0.2,0.3-0.3,0.4c-0.1,0.1-0.3,0.2-0.4,0.2c-0.2,0.1-0.5,0.1-0.7,0.1c-0.3,0-0.7,0-1.2,0c-0.4,0-0.9,0-1.3-0.1
	c-0.2,0-0.5-0.1-0.7-0.2c-0.1-0.1-0.2-0.3-0.1-0.5c0.1-0.3,0.2-0.6,0.4-0.9l8.7-14.6l-8.3-14.1c-0.2-0.3-0.3-0.6-0.4-0.9
	c-0.1-0.2,0-0.4,0.1-0.5c0.2-0.1,0.4-0.2,0.7-0.2c0.4,0,0.9-0.1,1.3,0c0.5,0,0.9,0,1.2,0c0.2,0,0.5,0.1,0.7,0.1
	c0.1,0.1,0.3,0.2,0.4,0.3c0.1,0.1,0.2,0.2,0.3,0.4L74,29.3l6.8-11.9c0.1-0.1,0.2-0.2,0.2-0.4c0.1-0.1,0.2-0.2,0.4-0.2
	c0.2-0.1,0.4-0.1,0.7-0.1c0.3,0,0.7,0,1.1,0c0.4,0,0.8,0,1.2,0.1c0.2,0,0.5,0.1,0.7,0.2c0.1,0.1,0.2,0.3,0.2,0.5
	c-0.1,0.3-0.2,0.6-0.3,0.9l-8.2,14L85.3,47z"/>
</svg>
