<?xml version="1.0" encoding="utf-8"?>
<!-- Generator: Adobe Illustrator 22.0.1, SVG Export Plug-In . SVG Version: 6.00 Build 0)  -->
<svg version="1.1" id="Ebene_1" xmlns="http://www.w3.org/2000/svg" xmlns:xlink="http://www.w3.org/1999/xlink" x="0px" y="0px"
	 viewBox="0 0 101.1 62.8" style="enable-background:new 0 0 101.1 62.8;" xml:space="preserve">
<style type="text/css">
	.st0{fill:#98CFEA;}
	.st1{fill:#262626;}
</style>
<title>Inc</title>
<path class="st0" d="M1.6,11.5C1.6,6,6,1.6,11.5,1.6h78.1c5.5,0,9.9,4.5,9.9,9.9v39.8c0,5.5-4.4,9.9-9.9,9.9H11.5
	c-5.5,0-9.9-4.5-9.9-9.9V11.5z"/>
<path class="st1" d="M31,39.1c0,0.2,0,0.4,0,0.5c0,0.1-0.1,0.3-0.1,0.4c0,0.1-0.1,0.2-0.2,0.2c-0.1,0-0.2,0.1-0.3,0.1h-5.4v6
	c0,0.1,0,0.2-0.1,0.2c-0.1,0.1-0.1,0.1-0.2,0.2c-0.1,0-0.2,0.1-0.4,0.1c-0.2,0-0.4,0-0.6,0c-0.2,0-0.4,0-0.6,0
	c-0.1,0-0.3-0.1-0.4-0.1c-0.1,0-0.2-0.1-0.2-0.2c0-0.1-0.1-0.1-0.1-0.2v-6h-5.4c-0.1,0-0.2,0-0.3-0.1c-0.1-0.1-0.1-0.1-0.2-0.2
	c-0.1-0.1-0.1-0.2-0.1-0.4c0-0.2-0.1-0.4,0-0.5c0-0.2,0-0.3,0-0.5c0-0.1,0.1-0.3,0.1-0.4c0-0.1,0.1-0.2,0.2-0.2
	c0.1,0,0.2-0.1,0.2-0.1h5.4v-6c0-0.2,0.1-0.4,0.3-0.4c0.1-0.1,0.2-0.1,0.4-0.1c0.2,0,0.4,0,0.6,0c0.2,0,0.4,0,0.6,0
	c0.1,0,0.3,0.1,0.4,0.1c0.1,0,0.2,0.1,0.2,0.2c0,0.1,0.1,0.2,0.1,0.2v6h5.4c0.1,0,0.2,0,0.2,0.1c0.1,0.1,0.1,0.1,0.2,0.2
	c0.1,0.1,0.1,0.2,0.1,0.4C31.1,38.7,31.1,38.9,31,39.1z"/>
<path class="st1" d="M34.7,52.5c0,0.1-0.1,0.2-0.2,0.3c-0.1,0.1-0.2,0.2-0.3,0.2c-0.1,0-0.3,0.1-0.4,0.1c-0.2,0-0.4,0-0.6,0
	c-0.2,0-0.5,0-0.7-0.1c-0.2,0-0.3-0.1-0.4-0.2c-0.1-0.1-0.2-0.2-0.2-0.3c0-0.1,0-0.3,0.1-0.4L42,25c0-0.1,0.1-0.2,0.2-0.3
	c0.1-0.1,0.2-0.2,0.3-0.2c0.1-0.1,0.3-0.1,0.4-0.1c0.2,0,0.4,0,0.6,0c0.2,0,0.4,0,0.7,0c0.1,0,0.3,0.1,0.4,0.2
	c0.1,0.1,0.2,0.2,0.2,0.3c0,0.1,0,0.3,0,0.4L34.7,52.5z"/>
<path class="st1" d="M54.4,40.2c0,0.3,0,0.6-0.1,0.9c-0.1,0.2-0.3,0.2-0.4,0.2h-6.9c-0.2,0-0.4-0.1-0.5-0.3
	c-0.1-0.3-0.2-0.6-0.1-0.9c0-0.3,0-0.6,0.1-0.9c0.1-0.2,0.3-0.2,0.5-0.2h6.9c0.1,0,0.2,0,0.2,0c0.1,0,0.1,0.1,0.2,0.2
	c0.1,0.1,0.1,0.2,0.1,0.4C54.4,39.8,54.4,40,54.4,40.2z"/>
<path class="st1" d="M84.1,46.8c0,0.3,0,0.5-0.1,0.8c0,0.2-0.1,0.4-0.2,0.5c-0.1,0.1-0.2,0.2-0.3,0.3c-0.1,0.1-0.2,0.1-0.4,0.1H64.5
	c-0.4,0-0.7-0.1-1-0.4c-0.3-0.3-0.4-0.8-0.4-1.3V46c0-0.2,0-0.4,0-0.6c0-0.2,0.1-0.4,0.2-0.6c0.1-0.2,0.2-0.5,0.3-0.7
	c0.2-0.3,0.3-0.6,0.5-0.9l14.7-22.9H64.3c-0.1,0-0.3,0-0.4-0.1c-0.1-0.1-0.2-0.2-0.3-0.3c-0.1-0.2-0.1-0.4-0.2-0.5
	c0-0.3,0-0.5,0-0.8c0-0.3,0-0.6,0-0.8c0-0.2,0.1-0.4,0.2-0.6c0.1-0.1,0.2-0.2,0.3-0.3c0.1-0.1,0.3-0.1,0.4-0.1H82
	c0.4,0,0.7,0.1,1,0.4c0.3,0.3,0.4,0.7,0.4,1.2v1c0,0.2,0,0.5-0.1,0.7c0,0.2-0.1,0.4-0.2,0.6c-0.1,0.2-0.2,0.5-0.3,0.7
	c-0.1,0.2-0.3,0.5-0.6,0.8L67.8,45h15.5c0.3,0,0.5,0.2,0.6,0.4C84,45.8,84.1,46.3,84.1,46.8z"/>
</svg>
