<?xml version="1.0" encoding="utf-8"?>
<!-- Generator: Adobe Illustrator 22.0.1, SVG Export Plug-In . SVG Version: 6.00 Build 0)  -->
<svg version="1.1" id="Ebene_1" xmlns="http://www.w3.org/2000/svg" xmlns:xlink="http://www.w3.org/1999/xlink" x="0px" y="0px"
	 viewBox="0 0 101.1 62.8" style="enable-background:new 0 0 101.1 62.8;" xml:space="preserve">
<style type="text/css">
	.st0{fill:#CCA55E;}
	.st1{fill:#262626;}
</style>
<title>Inc</title>
<path class="st0" d="M1.6,11.5C1.6,6,6,1.6,11.5,1.6l0,0h78.1c5.5,0,9.9,4.4,9.9,9.9l0,0v39.8c0,5.5-4.4,9.9-9.9,9.9l0,0H11.5
	c-5.5,0-9.9-4.4-9.9-9.9l0,0C1.6,51.3,1.6,11.5,1.6,11.5z"/>
<path class="st1" d="M29.3,42.9c0,0.2,0,0.4,0,0.6c0,0.1-0.1,0.3-0.1,0.4c0,0.1-0.1,0.2-0.2,0.3s-0.2,0.1-0.3,0.1H18.1
	c-0.3,0-0.6-0.1-0.8-0.3c-0.3-0.3-0.4-0.6-0.4-1V21c0-0.1,0-0.2,0.1-0.3c0.1-0.1,0.2-0.1,0.3-0.2c0.2-0.1,0.3-0.1,0.5-0.1
	c0.3,0,0.5,0,0.8,0s0.5,0,0.8,0c0.2,0,0.3,0.1,0.5,0.1c0.1,0,0.2,0.1,0.3,0.2c0.1,0.1,0.1,0.2,0.1,0.3v20.6h8.5c0.1,0,0.2,0,0.3,0.1
	c0.1,0.1,0.2,0.1,0.2,0.2c0.1,0.1,0.1,0.3,0.1,0.4C29.3,42.5,29.3,42.7,29.3,42.9z"/>
<path class="st1" d="M44.8,43.8c0,0.1,0,0.2-0.1,0.3s-0.3,0.1-0.4,0.2c-0.2,0-0.5,0.1-0.8,0.1s-0.5,0-0.8-0.1
	c-0.2,0-0.3-0.1-0.4-0.2c-0.1-0.1-0.1-0.2-0.1-0.3v-1.7c-0.7,0.7-1.5,1.4-2.4,1.8c-0.9,0.4-1.8,0.7-2.8,0.7c-0.8,0-1.6-0.1-2.4-0.3
	c-0.7-0.2-1.3-0.5-1.8-1c-0.5-0.4-0.9-1-1.2-1.6c-0.3-0.7-0.4-1.4-0.4-2.1c0-0.8,0.2-1.7,0.6-2.4c0.4-0.7,1-1.3,1.6-1.7
	c0.8-0.5,1.7-0.8,2.6-1c1.1-0.2,2.3-0.4,3.5-0.3h2.3v-1.3c0-0.6-0.1-1.1-0.2-1.7c-0.1-0.5-0.3-0.9-0.7-1.2c-0.3-0.3-0.7-0.6-1.2-0.7
	c-0.6-0.2-1.2-0.3-1.8-0.3c-0.7,0-1.3,0.1-2,0.3c-0.5,0.2-1.1,0.4-1.6,0.6c-0.4,0.2-0.8,0.4-1.1,0.6c-0.2,0.1-0.4,0.2-0.7,0.3
	c-0.1,0-0.2,0-0.3-0.1s-0.1-0.1-0.2-0.2c-0.1-0.1-0.1-0.2-0.1-0.4c0-0.2,0-0.3,0-0.5s0-0.5,0.1-0.7c0-0.2,0.2-0.4,0.3-0.5
	c0.3-0.2,0.5-0.4,0.8-0.6c0.5-0.2,0.9-0.4,1.4-0.6c0.6-0.2,1.1-0.3,1.7-0.4c0.6-0.1,1.3-0.2,1.9-0.2c1,0,2,0.1,3,0.4
	c0.8,0.2,1.4,0.6,2,1.2c0.5,0.5,0.9,1.2,1.1,1.9c0.3,0.9,0.4,1.8,0.3,2.7L44.8,43.8z M41.8,36.3h-2.6c-0.7,0-1.5,0.1-2.2,0.2
	c-0.5,0.1-1.1,0.3-1.5,0.6c-0.4,0.2-0.7,0.6-0.9,1s-0.3,0.9-0.3,1.3c0,0.8,0.3,1.5,0.8,2c0.6,0.5,1.5,0.8,2.3,0.8s1.5-0.2,2.2-0.5
	c0.8-0.5,1.5-1.1,2.1-1.9L41.8,36.3z"/>
<path class="st1" d="M64.6,43.8c0,0.1,0,0.2-0.1,0.3s-0.1,0.1-0.2,0.2c-0.1,0.1-0.3,0.1-0.5,0.1c-0.2,0-0.5,0-0.7,0s-0.5,0-0.8,0
	c-0.2,0-0.3,0-0.5-0.1c-0.1,0-0.2-0.1-0.2-0.2c0-0.1-0.1-0.2-0.1-0.3v-9.7c0-0.8-0.1-1.5-0.2-2.3c-0.1-0.5-0.3-1-0.6-1.5
	c-0.3-0.4-0.7-0.8-1.1-1c-0.5-0.2-1-0.3-1.6-0.3c-0.8,0-1.6,0.3-2.3,0.8c-0.9,0.7-1.7,1.5-2.4,2.4v11.6c0,0.1,0,0.2-0.1,0.3
	s-0.1,0.1-0.2,0.2c-0.1,0.1-0.3,0.1-0.5,0.1s-0.5,0-0.8,0c-0.2,0-0.5,0-0.7,0s-0.3-0.1-0.5-0.1c-0.1,0-0.2-0.1-0.2-0.2
	c0-0.1-0.1-0.2-0.1-0.3V27.3c0-0.1,0-0.2,0.1-0.3c0.1-0.1,0.1-0.2,0.2-0.2c0.1-0.1,0.3-0.1,0.4-0.1c0.4,0,0.9,0,1.3,0
	c0.1,0,0.3,0,0.4,0.1c0.1,0,0.2,0.1,0.2,0.2c0.1,0.1,0.1,0.2,0.1,0.3v2.2c0.8-0.9,1.7-1.7,2.8-2.3c0.9-0.5,1.8-0.7,2.8-0.7
	s1.9,0.2,2.8,0.6c0.7,0.3,1.3,0.9,1.8,1.5c0.5,0.7,0.8,1.4,1,2.2c0.2,1,0.3,2,0.3,3L64.6,43.8z"/>
<path class="st1" d="M84.1,43.8c0,0.1,0,0.2-0.1,0.3s-0.1,0.1-0.2,0.2c-0.1,0.1-0.3,0.1-0.4,0.1c-0.2,0-0.4,0-0.6,0s-0.4,0-0.6,0
	c-0.1,0-0.3-0.1-0.4-0.1s-0.2-0.1-0.2-0.2c0-0.1-0.1-0.2-0.1-0.3v-2.2c-0.8,0.9-1.7,1.6-2.7,2.2c-0.9,0.5-2,0.8-3.1,0.8
	s-2.1-0.2-3.1-0.8c-0.8-0.5-1.6-1.1-2.1-1.9c-0.6-0.9-1-1.8-1.2-2.8c-0.5-2.4-0.5-4.9,0.1-7.3c0.3-1.1,0.7-2,1.4-2.9
	c0.6-0.8,1.3-1.4,2.2-1.9c1-0.4,2-0.7,3.1-0.6c0.9,0,1.8,0.2,2.7,0.6c0.9,0.5,1.7,1.1,2.4,1.9v-9.6c0-0.1,0-0.2,0.1-0.3
	c0.1-0.1,0.1-0.2,0.3-0.2c0.2-0.1,0.3-0.1,0.5-0.1s0.5-0.1,0.7,0c0.3,0,0.5,0,0.8,0c0.2,0,0.3,0.1,0.5,0.1c0.1,0,0.2,0.1,0.2,0.2
	c0.1,0.1,0.1,0.2,0.1,0.3L84.1,43.8z M81.1,32.2c-0.7-0.9-1.5-1.7-2.4-2.3c-0.7-0.5-1.5-0.8-2.4-0.8c-0.7,0-1.4,0.2-2,0.5
	c-0.5,0.4-1,0.9-1.3,1.5s-0.6,1.3-0.7,2c-0.1,0.8-0.2,1.5-0.2,2.3s0.1,1.6,0.2,2.5c0.1,0.7,0.3,1.5,0.7,2.1c0.3,0.6,0.7,1.1,1.3,1.5
	c0.6,0.4,1.3,0.6,2,0.6c0.4,0,0.8-0.1,1.2-0.2c0.4-0.1,0.8-0.3,1.2-0.6c0.4-0.3,0.8-0.6,1.2-1c0.5-0.5,0.9-1,1.4-1.5L81.1,32.2z"/>
</svg>
