<?xml version="1.0" encoding="utf-8"?>
<!-- Generator: Adobe Illustrator 22.0.1, SVG Export Plug-In . SVG Version: 6.00 Build 0)  -->
<svg version="1.1" id="Ebene_1" xmlns="http://www.w3.org/2000/svg" xmlns:xlink="http://www.w3.org/1999/xlink" x="0px" y="0px"
	 viewBox="0 0 101.1 62.8" style="enable-background:new 0 0 101.1 62.8;" xml:space="preserve">
<style type="text/css">
	.st0{fill:#BBBBBB;}
	.st1{fill:#262626;}
</style>
<path class="st0" d="M3,12.1c0-5.3,4.3-9.6,9.7-9.6h75.8c5.3,0,9.7,4.3,9.7,9.6v38.5c0,5.3-4.3,9.6-9.7,9.6H12.7
	C7.3,60.3,3,56,3,50.7V12.1z"/>
<path class="st1" d="M25.9,42.4c0,0.3,0,0.5,0,0.6s-0.1,0.4-0.1,0.5c0,0.1-0.1,0.3-0.3,0.3S25.4,44,25.3,44H13.9
	c-0.3,0-0.6-0.1-0.9-0.3c-0.3-0.3-0.4-0.5-0.4-1.1V18.6c0-0.1,0-0.3,0.1-0.3s0.1-0.1,0.3-0.1c0.1,0,0.3-0.1,0.5-0.1
	c0.3,0,0.5,0,0.8,0c0.4,0,0.6,0,0.9,0s0.4,0.1,0.5,0.1c0.1,0,0.3,0.1,0.3,0.1s0.1,0.1,0.1,0.3v22.3h9.2c0.1,0,0.3,0,0.3,0.1
	c0.1,0,0.1,0.1,0.3,0.3c0,0.1,0.1,0.3,0.1,0.5S25.9,42.2,25.9,42.4z"/>
<path class="st1" d="M45.8,34.3c0,1.5-0.3,2.8-0.6,4s-1,2.3-1.8,3.2s-1.8,1.6-2.9,2c-1.1,0.5-2.5,0.8-4,0.8c-1.5,0-2.8-0.3-3.9-0.6
	c-1.1-0.4-2-1-2.8-1.9s-1.3-1.9-1.6-3s-0.5-2.5-0.5-4c0-1.5,0.1-2.8,0.5-4s1-2.3,1.8-3.2c0.8-0.9,1.8-1.5,2.9-2
	c1.1-0.5,2.5-0.8,4-0.8c1.5,0,2.8,0.3,3.9,0.6c1.1,0.4,2,1.1,2.8,1.9c0.8,0.9,1.3,1.9,1.6,3C45.7,31.4,45.8,32.8,45.8,34.3z
	 M42.4,34.5c0-1-0.1-1.9-0.3-2.8c-0.1-0.9-0.5-1.6-0.9-2.3s-1-1.1-1.6-1.5c-0.8-0.4-1.6-0.5-2.7-0.5s-1.8,0.1-2.5,0.5
	c-0.8,0.4-1.3,0.9-1.8,1.5c-0.5,0.6-0.8,1.4-1,2.3c-0.3,0.9-0.4,1.8-0.4,2.8s0.1,1.9,0.3,2.8c0.1,0.9,0.5,1.6,0.9,2.3
	c0.4,0.6,1,1.1,1.6,1.5c0.6,0.4,1.6,0.5,2.7,0.5c1,0,1.8-0.1,2.5-0.5c0.8-0.4,1.3-0.9,1.8-1.4c0.5-0.5,0.8-1.4,1-2.3
	C42.2,36.5,42.4,35.5,42.4,34.5z"/>
<path class="st1" d="M67.3,34.3c0,1.5-0.3,2.8-0.6,4s-1,2.3-1.8,3.2c-0.8,0.9-1.8,1.6-2.9,2c-1.1,0.5-2.5,0.8-4,0.8
	s-2.8-0.3-3.9-0.6c-1.1-0.4-2-1-2.8-1.9s-1.3-1.9-1.6-3c-0.4-1.1-0.5-2.5-0.5-4c0-1.5,0.1-2.8,0.5-4c0.4-1.3,1-2.3,1.8-3.2
	c0.8-0.9,1.8-1.5,2.9-2s2.5-0.8,4-0.8c1.5,0,2.8,0.3,3.9,0.6c1.1,0.4,2,1.1,2.8,1.9c0.8,0.9,1.3,1.9,1.6,3
	C67.2,31.4,67.3,32.8,67.3,34.3z M63.9,34.5c0-1-0.1-1.9-0.3-2.8c-0.1-0.9-0.5-1.6-0.9-2.3c-0.4-0.6-1-1.1-1.6-1.5
	c-0.8-0.4-1.6-0.5-2.7-0.5c-1,0-1.8,0.1-2.5,0.5c-0.8,0.4-1.3,0.9-1.8,1.5s-0.8,1.4-1,2.3c-0.3,0.9-0.4,1.8-0.4,2.8s0.1,1.9,0.3,2.8
	c0.1,0.9,0.5,1.6,0.9,2.3c0.4,0.6,1,1.1,1.6,1.5c0.6,0.4,1.6,0.5,2.7,0.5c1,0,1.8-0.1,2.5-0.5c0.8-0.4,1.3-0.9,1.8-1.4
	s0.8-1.4,1-2.3C63.9,36.5,63.9,35.5,63.9,34.5z"/>
<path class="st1" d="M88.7,34.2c0,1.5-0.1,3-0.5,4.2c-0.4,1.1-0.9,2.3-1.5,3.2c-0.6,0.9-1.5,1.5-2.4,2c-0.9,0.5-2,0.8-3.3,0.8
	c-0.5,0-1,0-1.5-0.1c-0.5-0.1-0.9-0.3-1.3-0.5c-0.4-0.3-0.9-0.5-1.3-0.9s-0.9-0.8-1.4-1.3v9c0,0.1,0,0.3-0.1,0.3
	c0,0.1-0.1,0.1-0.3,0.3c-0.1,0-0.3,0.1-0.5,0.1c-0.3,0-0.5,0-0.8,0c-0.4,0-0.6,0-0.8,0S72.7,51,72.6,51s-0.3-0.1-0.3-0.3
	c0-0.1-0.1-0.1-0.1-0.3V25.5c0-0.1,0-0.3,0-0.3c0-0.1,0.1-0.1,0.3-0.1S72.7,25,73,25c0.1,0,0.4,0,0.6,0c0.3,0,0.5,0,0.6,0
	s0.4,0,0.5,0.1c0.1,0,0.3,0.1,0.3,0.1s0.1,0.1,0.1,0.3v2.4c0.5-0.5,1-1,1.5-1.4c0.5-0.4,1-0.8,1.5-1c0.5-0.3,1-0.5,1.5-0.6
	c0.5-0.1,1.1-0.3,1.6-0.3c1.3,0,2.4,0.3,3.3,0.8c0.9,0.5,1.6,1.1,2.3,2c0.6,0.9,1,1.9,1.3,3C88.6,31.7,88.7,32.9,88.7,34.2z
	 M85.3,34.6c0-0.9-0.1-1.8-0.3-2.7c-0.1-0.9-0.4-1.6-0.8-2.3c-0.4-0.6-0.8-1.1-1.4-1.6c-0.6-0.4-1.3-0.6-2.2-0.6
	c-0.4,0-0.9,0.1-1.3,0.1c-0.4,0-0.9,0.4-1.3,0.6c-0.4,0.3-0.9,0.6-1.4,1.1c-0.5,0.5-1,1-1.5,1.6V38c0.9,1.1,1.8,1.9,2.5,2.5
	c0.8,0.6,1.6,0.9,2.5,0.9c0.9,0,1.5-0.3,2.2-0.6s1.1-0.9,1.4-1.6c0.4-0.6,0.6-1.4,0.8-2.3C85.3,36.2,85.3,35.5,85.3,34.6z"/>
</svg>
