<?xml version="1.0" encoding="utf-8"?>
<!-- Generator: Adobe Illustrator 22.0.1, SVG Export Plug-In . SVG Version: 6.00 Build 0)  -->
<svg version="1.1" id="Ebene_1" xmlns="http://www.w3.org/2000/svg" xmlns:xlink="http://www.w3.org/1999/xlink" x="0px" y="0px"
	 viewBox="0 0 101.1 101.2" style="enable-background:new 0 0 101.1 101.2;" xml:space="preserve">
<style type="text/css">
	.st0{fill:#DFDFDF;}
	.st1{fill:#426A29;}
</style>
<path class="st0" d="M1.6,17.9c0-9,7.3-16.3,16.3-16.3h65.3c9,0,16.3,7.3,16.3,16.3v65.4c0,9-7.3,16.3-16.3,16.3H17.9
	c-9,0-16.3-7.3-16.3-16.3C1.6,83.3,1.6,17.9,1.6,17.9z"/>
<path class="st1" d="M75.9,46L30.7,19.9c-3.6-2.1-8,0.5-8,4.6v52.2c0,4.1,4.4,6.7,8,4.6l45.2-26.1C79.5,53.2,79.5,48,75.9,46z"/>
</svg>
