<?xml version="1.0" encoding="utf-8"?>
<!-- Generator: Adobe Illustrator 22.0.1, SVG Export Plug-In . SVG Version: 6.00 Build 0)  -->
<svg version="1.1" id="Ebene_1" xmlns="http://www.w3.org/2000/svg" xmlns:xlink="http://www.w3.org/1999/xlink" x="0px" y="0px"
	 viewBox="0 0 101.1 62.8" style="enable-background:new 0 0 101.1 62.8;" xml:space="preserve">
<style type="text/css">
	.st0{fill:#C6B6E4;}
	.st1{fill:#262626;}
</style>
<title>Inc</title>
<path class="st0" d="M1.6,11.5C1.6,6,6,1.6,11.5,1.6h78.1c5.5,0,9.9,4.5,9.9,9.9v39.8c0,5.5-4.4,9.9-9.9,9.9H11.5
	c-5.5,0-9.9-4.5-9.9-9.9L1.6,11.5z"/>
<path class="st1" d="M30.5,43.1c0.1,0.2,0.2,0.4,0.3,0.6c0,0.1,0,0.3-0.1,0.4c-0.2,0.1-0.3,0.2-0.5,0.2c-0.3,0-0.7,0-1,0
	c-0.4,0-0.7,0-0.9,0c-0.2,0-0.4,0-0.5-0.1c-0.1,0-0.2-0.1-0.3-0.2c-0.1-0.1-0.1-0.2-0.2-0.3L22,34.3l-5.3,9.5
	c-0.1,0.1-0.1,0.2-0.2,0.3c-0.1,0.1-0.2,0.1-0.3,0.2c-0.2,0-0.3,0.1-0.5,0.1c-0.2,0-0.5,0-0.9,0c-0.3,0-0.7,0-1,0
	c-0.2,0-0.3-0.1-0.5-0.2c-0.1-0.1-0.1-0.2-0.1-0.4c0.1-0.2,0.2-0.4,0.3-0.6l6.5-10.9l-6.2-10.5c-0.1-0.2-0.2-0.4-0.3-0.6
	c-0.1-0.1,0-0.3,0.1-0.4c0.1-0.1,0.3-0.2,0.5-0.2c0.3,0,0.6,0,1,0s0.7,0,0.9,0c0.2,0,0.4,0,0.6,0.1c0.1,0,0.2,0.1,0.3,0.2L17,21
	l5.1,8.9l5.1-8.9l0.2-0.3c0.1-0.1,0.2-0.1,0.3-0.2c0.2-0.1,0.3-0.1,0.5-0.1c0.2,0,0.5,0,0.8,0c0.3,0,0.6,0,0.9,0
	c0.2,0,0.4,0.1,0.5,0.2c0.1,0.1,0.1,0.2,0.1,0.4c0,0.2-0.1,0.4-0.3,0.6l-6.2,10.5L30.5,43.1z"/>
<path class="st1" d="M42.5,35v8.8c0,0.1,0,0.2-0.1,0.3c-0.1,0.1-0.2,0.1-0.3,0.2c-0.2,0.1-0.3,0.1-0.5,0.1c-0.2,0-0.5,0-0.8,0
	c-0.2,0-0.5,0-0.8,0c-0.2,0-0.3-0.1-0.5-0.1c-0.2,0-0.3-0.2-0.3-0.4V35l-6.7-13.4c-0.1-0.2-0.2-0.4-0.3-0.7c0-0.1,0-0.3,0.1-0.4
	c0.1-0.1,0.3-0.2,0.5-0.2c0.2,0,0.6,0,1,0c0.4,0,0.7,0,0.9,0c0.2,0,0.4,0.1,0.5,0.1c0.1,0,0.2,0.1,0.3,0.2c0.1,0.1,0.1,0.2,0.2,0.3
	l3.3,6.9c0.3,0.6,0.6,1.3,0.9,2s0.6,1.4,0.9,2.2l0,0c0.3-0.7,0.6-1.4,0.9-2.1s0.6-1.4,0.9-2l3.3-6.9c0-0.1,0.1-0.2,0.2-0.3
	c0.1-0.1,0.2-0.2,0.3-0.2c0.2-0.1,0.3-0.1,0.5-0.1c0.2,0,0.5,0,0.8,0c0.3,0,0.7,0,1,0c0.2,0,0.4,0.1,0.5,0.2
	c0.1,0.1,0.1,0.2,0.1,0.4c-0.1,0.2-0.1,0.4-0.3,0.6L42.5,35z"/>
<path class="st1" d="M66.7,42.9c0,0.2,0,0.4,0,0.6c0,0.1-0.1,0.3-0.1,0.4c0,0.1-0.1,0.2-0.2,0.2c-0.1,0-0.2,0.1-0.3,0.1H52
	c-0.3,0-0.6-0.1-0.8-0.3c-0.2-0.3-0.3-0.6-0.3-0.9v-0.7c0-0.1,0-0.3,0-0.5c0-0.1,0.1-0.3,0.1-0.4c0.1-0.2,0.2-0.3,0.3-0.5
	c0.1-0.2,0.2-0.4,0.4-0.7l11-17.2H51.9c-0.1,0-0.2,0-0.3-0.1c-0.1-0.1-0.2-0.1-0.2-0.2c-0.1-0.1-0.1-0.3-0.1-0.4c0-0.2,0-0.4,0-0.6
	c0-0.2,0-0.4,0-0.6c0-0.1,0.1-0.3,0.1-0.4c0-0.1,0.1-0.2,0.2-0.2c0.1-0.1,0.2-0.1,0.3-0.1h13.2c0.3,0,0.6,0.1,0.8,0.3
	c0.2,0.2,0.3,0.6,0.3,0.9v0.7c0,0.2,0,0.4,0,0.5c0,0.2-0.1,0.3-0.1,0.5c-0.1,0.2-0.2,0.3-0.3,0.5c-0.1,0.2-0.3,0.4-0.4,0.6l-11,17.1
	H66c0.2,0,0.4,0.1,0.5,0.3C66.6,42.2,66.7,42.6,66.7,42.9z"/>
<path class="st1" d="M87.7,42.9c0,0.3,0,0.6-0.1,0.8c0,0.1-0.1,0.3-0.2,0.4c-0.1,0.1-0.2,0.2-0.3,0.2c-0.2,0.1-0.4,0.1-0.6,0.2
	c-0.2,0-0.4,0.1-0.7,0.1c-0.2,0-0.5,0-0.7,0c-0.4,0-0.9-0.1-1.3-0.2c-0.4-0.1-0.8-0.3-1.2-0.6c-0.4-0.3-0.7-0.7-0.8-1.1
	c-0.3-0.6-0.4-1.1-0.5-1.8c-0.2,0.5-0.5,1-0.9,1.5c-0.4,0.4-0.8,0.8-1.3,1.2c-0.5,0.3-1,0.6-1.6,0.8c-0.6,0.2-1.3,0.3-1.9,0.3
	c-1.1,0-2.2-0.2-3.1-0.7c-0.9-0.4-1.6-1.1-2.1-1.9c-0.6-0.9-1-1.8-1.2-2.8c-0.3-1.2-0.4-2.3-0.4-3.5c0-1.3,0.1-2.6,0.5-3.9
	c0.3-1.1,0.8-2,1.4-2.9c0.6-0.8,1.4-1.4,2.3-1.9c1-0.4,2.1-0.7,3.2-0.6c0.8,0,1.5,0.1,2.2,0.4c0.7,0.2,1.3,0.6,1.8,1.1
	c0.5,0.5,1,1.1,1.3,1.8c0.4,0.8,0.6,1.7,0.7,2.5c0.2-0.9,0.4-1.6,0.5-2.3s0.2-1.2,0.3-1.6s0.1-0.8,0.1-1c0-0.2,0-0.3,0.1-0.4
	l0.2-0.1c0.1,0,0.2-0.1,0.2-0.1c0.1,0,0.3,0,0.4-0.1h0.5c0.2,0,0.5,0,0.7,0c0.2,0,0.3,0,0.4,0.1c0.1,0,0.2,0.1,0.2,0.2
	c0,0.1,0.1,0.2,0.1,0.2c0,0.3,0,0.6-0.1,0.9c-0.1,0.4-0.2,0.9-0.3,1.5s-0.2,1.2-0.4,1.8c-0.2,0.6-0.3,1.3-0.5,2s-0.4,1.3-0.6,2
	c-0.2,0.7-0.4,1.2-0.6,1.8c0,0.8,0.1,1.7,0.2,2.5c0.1,0.5,0.2,1,0.4,1.5c0.2,0.5,0.8,0.9,1.4,0.9c0.2,0,0.4,0,0.6-0.1l0.5-0.1
	l0.4-0.1c0.1,0,0.2-0.1,0.3-0.1c0,0,0.1,0,0.2,0c0,0.1,0.1,0.1,0.1,0.2c0,0.1,0.1,0.2,0.1,0.4C87.7,42.4,87.7,42.7,87.7,42.9z
	 M80.6,35.4c0-1-0.1-2-0.4-3c-0.2-0.7-0.5-1.4-1-2c-0.7-0.9-1.8-1.5-2.9-1.5c-0.7,0-1.4,0.2-2,0.5c-0.5,0.4-1,0.9-1.3,1.5
	c-0.4,0.6-0.6,1.3-0.8,2.1c-0.2,0.8-0.2,1.6-0.2,2.4c0,0.8,0.1,1.7,0.2,2.5c0.1,0.7,0.3,1.5,0.7,2.1c0.3,0.6,0.7,1.1,1.3,1.5
	c0.6,0.4,1.3,0.6,2,0.6c0.7,0,1.3-0.2,1.9-0.5c0.6-0.3,1.1-0.8,1.4-1.4c0.4-0.6,0.7-1.4,0.9-2.1C80.5,37.3,80.6,36.4,80.6,35.4
	L80.6,35.4z"/>
</svg>
