<?xml version="1.0" encoding="utf-8"?>
<!-- Generator: Adobe Illustrator 22.0.1, SVG Export Plug-In . SVG Version: 6.00 Build 0)  -->
<svg version="1.1" id="Ebene_1" xmlns="http://www.w3.org/2000/svg" xmlns:xlink="http://www.w3.org/1999/xlink" x="0px" y="0px"
	 viewBox="0 0 101.1 101.2" style="enable-background:new 0 0 101.1 101.2;" xml:space="preserve">
<style type="text/css">
	.st0{fill:#262626;}
</style>
<path class="st0" d="M2.7,86l15.8-15.8c2.2-2.2,5.1-2.9,7.9-2.4l5.5-5.5c-4.9-6.3-7.9-14.4-7.9-23.1c0-20.9,17.1-38,38-38
	s38,17.1,38,38s-17.1,38-38,38c-8.6,0-16.6-2.9-23-7.9l-5.7,5.5c0.5,2.9-0.3,5.7-2.4,7.9L15.2,98.5c-1.7,1.7-4.1,2.7-6.3,2.7
	s-4.6-1-6.3-2.7C-0.8,94.9-0.8,89.3,2.7,86L2.7,86z M62.1,69.4c16.6,0,30.4-13.6,30.4-30.4S78.9,8.5,62.1,8.5S31.8,22.3,31.8,38.9
	S45.5,69.4,62.1,69.4L62.1,69.4z"/>
</svg>
