<?xml version="1.0" encoding="utf-8"?>
<!-- Generator: Adobe Illustrator 22.0.1, SVG Export Plug-In . SVG Version: 6.00 Build 0)  -->
<svg version="1.1" id="Ebene_1" xmlns="http://www.w3.org/2000/svg" xmlns:xlink="http://www.w3.org/1999/xlink" x="0px" y="0px"
	 viewBox="0 0 101.1 101.2" style="enable-background:new 0 0 101.1 101.2;" xml:space="preserve">
<style type="text/css">
	.st0{fill:#DFDFDF;}
	.st1{fill:#262626;}
</style>
<path class="st0" d="M1.6,17.9c0-9,7.3-16.3,16.3-16.3h65.3c9,0,16.3,7.3,16.3,16.3v65.4c0,9-7.3,16.3-16.3,16.3H17.9
	c-9,0-16.3-7.3-16.3-16.3C1.6,83.3,1.6,17.9,1.6,17.9z"/>
<path class="st1" d="M20.6,72.7l10-10c1.4-1.4,3.2-1.8,5-1.5l3.5-3.5c-3.1-4-5-9.1-5-14.6c0-13.2,10.8-24,24-24s24,10.8,24,24
	s-10.8,24-24,24c-5.4,0-10.5-1.8-14.5-5L40,65.6c0.3,1.8-0.2,3.6-1.5,5l-10,10c-1.1,1.1-2.6,1.7-4,1.7s-2.9-0.6-4-1.7
	C18.4,78.3,18.4,74.8,20.6,72.7L20.6,72.7z M58.1,62.2c10.5,0,19.2-8.6,19.2-19.2s-8.6-19.2-19.2-19.2S39,32.5,39,43
	S47.6,62.2,58.1,62.2L58.1,62.2z"/>
</svg>
