<?xml version="1.0" encoding="utf-8"?>
<!-- Generator: Adobe Illustrator 22.0.1, SVG Export Plug-In . SVG Version: 6.00 Build 0)  -->
<svg version="1.1" id="Ebene_1" xmlns="http://www.w3.org/2000/svg" xmlns:xlink="http://www.w3.org/1999/xlink" x="0px" y="0px"
	 viewBox="0 0 101.1 101.2" style="enable-background:new 0 0 101.1 101.2;" xml:space="preserve">
<style type="text/css">
	.st0{fill:#DFDFDF;}
	.st1{fill:#DE3A29;}
</style>
<path class="st0" d="M1.6,17.9c0-9,7.3-16.3,16.3-16.3h65.3c9,0,16.3,7.3,16.3,16.3v65.4c0,9-7.3,16.3-16.3,16.3H17.9
	c-9,0-16.3-7.3-16.3-16.3C1.6,83.3,1.6,17.9,1.6,17.9z"/>
<path class="st1" d="M74.9,80.1H26.2c-2.9,0-5.2-2.3-5.2-5.2V26.2c0-2.9,2.3-5.2,5.2-5.2h48.7c2.9,0,5.2,2.3,5.2,5.2V75
	C80.1,77.8,77.8,80.1,74.9,80.1z"/>
</svg>
