<?xml version="1.0" encoding="utf-8"?>
<!-- Generator: Adobe Illustrator 22.0.1, SVG Export Plug-In . SVG Version: 6.00 Build 0)  -->
<svg version="1.1" id="Ebene_1" xmlns="http://www.w3.org/2000/svg" xmlns:xlink="http://www.w3.org/1999/xlink" x="0px" y="0px"
	 viewBox="0 0 101.1 101.2" style="enable-background:new 0 0 101.1 101.2;" xml:space="preserve">
<style type="text/css">
	.st0{fill:#DFDFDF;}
	.st1{fill:#262626;}
</style>
<path class="st0" d="M1.6,17.9c0-9,7.3-16.3,16.3-16.3h65.3c9,0,16.3,7.3,16.3,16.3v65.4c0,9-7.3,16.3-16.3,16.3H17.9
	c-9,0-16.3-7.3-16.3-16.3C1.6,83.3,1.6,17.9,1.6,17.9z"/>
<path class="st1" d="M68.3,35.2H33.6c-1.1,0-2,0.9-2,2s0.9,2,2,2h0.8l4.8,29c0.2,1,1,1.6,2,1.6h19.4c1,0,1.8-0.7,2-1.6l4.9-29h0.8
	c1.1,0,2-0.9,2-2C70.4,36.1,69.4,35.2,68.3,35.2L68.3,35.2z M42.8,58.2c0.2,0.3,0.6,0.5,1,0.5h3.1v2h-3.1c-1.1,0-2.2-0.6-2.7-1.6
	s-0.5-2,0.1-3.1l2.6-4.5l-1.8-1l4.2-1.1l1.1,4.2l-1.8-1l-2.5,4.6C42.7,57.5,42.6,57.9,42.8,58.2L42.8,58.2z M46.9,46.6l1.6-2.7
	c0.6-1,1.6-1.6,2.7-1.6c1,0,2,0.6,2.6,1.6l2.6,4.5l1.8-1l-1.1,4.2l-4.2-1.1l1.8-1L52,45c-0.2-0.4-0.5-0.6-0.8-0.6s-0.7,0.2-0.9,0.6
	l-1.6,2.7L46.9,46.6L46.9,46.6L46.9,46.6z M60.9,59.3c-0.6,0.9-1.5,1.4-2.6,1.4c-0.1,0-0.1,0-0.1,0H53v2l-3.1-3.1l3.1-3.1v2.1h5.2
	c0.5,0,0.8-0.1,0.9-0.4c0.2-0.3,0.1-0.7-0.1-1l-1.5-2.7l1.8-1l1.6,2.7c0.1,0.3,0.3,0.5,0.3,0.7l0.2,0.1l-0.1,0.1
	C61.4,57.9,61.3,58.7,60.9,59.3L60.9,59.3z"/>
</svg>
